<svg xmlns="http://www.w3.org/2000/svg" viewBox="0 0 403.2 143.4" enable-background="new 0 0 403.2 143.4"><path fill="#fff" d="M0 0v119.2h177.4l24.2 24.2 24.2-24.2h177.4V0H0zm400.1 115.9h-175l-23.4 23.9-23.4-23.9H3.1V3.2h397v112.7zM81.9 50c0-.5-2.2-.8-6.6-.8h-.1c-.4 8.3-.9 14-1.6 17.3-.3 1.8-.5 3-.8 3.5 0 .7-.3 1.1-.8 1.1h-.3c-.1 0-.2-.2-.4-.4-.2-2.3-.7-5.8-1.4-10.3 0-1.2-.2-2.3-.4-3.2-.2-1-1-1.4-2.6-1.3-.8.1-1.2.3-1.2.4l.3.4-.8 1c-1 2.4-2.1 5.2-3.3 8.4-.4 2.3-.8 3.4-1.4 3.4-.3-.5-.5-1.7-.5-3.7v-3.9c0-1.6-.1-4-.3-7.4 0-1.9-.1-3.1-.4-3.6v-.3c0-.1-.2-.1-.6-.2-.4-.1-1.1-.2-1.9-.2-.9-.2-1.7-.2-2.6-.2h-.5l-1.1-.1c-.5.7-.9 1.3-1 1.8v.1c.3 1 .7 1.5 1.2 1.5 2.1 0 3.1.1 3.1.2.3 0 .4 1.9.4 5.7v.1l-.1 1.5c.2.5.4 1.4.5 2.5.7 3.1 1.1 5.8 1.1 8.1l-.1.5c0 .7.1 1.2.2 1.4.2.4 1.2.4 3.1.1.9 0 1.5-.2 1.6-.4 0-.2-.2-.5-.7-.8V72c.4-.3.7-.5.9-.8.5-1.2 1.3-3.6 2.4-7.1.7-2.3 1.1-3.5 1.2-3.5.1 0 .1.1.1.2.7 2.2 1 3.7 1 4.5.3 1.2.4 1.8.5 1.8 0 1.1.3 2.6.9 4.4.2 1 .4 1.7.8 2.1l3.8-.4h.1c0 .1-.3.2-.8.4-1.9.3-2.8.4-2.8.5 0 .1.5.3 1.4.3H74c.2 0 .4 0 .5.1h.2c.4-2.4.8-4 1.1-4.9.4-.7.7-2.5 1-5.5.6-2.7 1.1-5.3 1.5-7.7.5-2.2.9-3.3 1-3.3h.1l1.9.3.3-.1c.1-1 .2-1.6.4-2l-.1-1.3zm-29.5 1c0-.2.3-.3 1-.4.7 0 1.1.1 1.1.3 0 .1-.7.3-2 .4l-.2-.1V51zm.6 1.7c-.1 0-.3-.1-.4-.3v-.1h.4l.2.2-.2.2zm3.3-.4h-2.6v-.1l.1-.1h2.5v.2zm1.1 5.3h-.1c-.1 0-.2-.7-.3-2.1v-.7h.2c.2.7.3 1.5.3 2.3v.5zm.2 4.2l-.1-.3v-.4h.1v.7zm.7-4h.1c.4 1.2.5 2.8.5 5v.6h-.1c-.4-2.5-.5-4.1-.5-5v-.6zm.7 9.4c0 .5-.1 1-.2 1.3-.1 0-.2-.3-.2-.8 0-.7.1-1 .2-1 .1.1.1.2.2.5zm0 5.2h-.2l-.1-.1.1-.1h.2v.2zm.1-1.8c-.2 0-.4-.1-.5-.4v-.1l.2-.1.3.2v.4zm1.7.2l-.1.1h-.3c0-.2.1-.3.4-.3v.2zm3.2-5.4c-.2 1-.6 2.4-1.2 4.1 0 .6-.4 1.1-1.3 1.4v-.1c.8-.8 1.2-1.4 1.2-1.8h-.3v-.3c.5-1.9 1-3 1.5-3.3h.1zm1.4-4.8h-.3l.2-.2.1.2zm1.1-2.3l-.1-.1v-.4s.1.1.3.4c0 0-.1.1-.2.1zm2.5 6.5c-.4-.6-.6-1.5-.6-2.9v-.1c.2 0 .4 1 .6 3zm.6-6.6l.1.2h-.1v-.2zm1.1 13c0 .2-.3.3-.8.3-.1 0-.2 0-.2-.1v-.7h.1c0 .4.1.6.2.6s.3-.1.5-.2v.1zm1.4.6c-.1 0-.1 0-.1-.1.1-.1.2-.2.4-.2v.1c.1.1-.1.2-.3.2zm1.5-.3c-.1.4-.1.6-.2.6h-.2l-.3-.2c0-.3.2-.5.7-.6v.2zm1.1-5.5c-.2 2-.5 3-.7 3-.1 1.2-.3 1.8-.5 1.8h-.1v-.1c.3-1.4.5-2.3.5-2.7.2-1.2.4-2 .7-2.3v.3zm4.6-15l.1.7-.1.2h-.4l-.3-.3v-.1c0-.2.3-.5.8-.7l1.6.1-1.7.1zm0-.6h-.7c.1-.1.9-.2 2.5-.2l.1.1c0 .1-.7.1-1.9.1zM100.8 67c-.8-.6-1.4-1-1.6-1.2-1 .4-1.8 1.3-2.5 2.6l.1.2c.4.1.6.1.6.2v.1c-1.7 1.8-2.9 2.8-3.4 2.9-.7.4-1.1.6-1.3.6-1.2 0-2.4-.2-3.3-.5-1.2-.4-2.2-1.5-3.2-3.2-.5-.6-.8-1.1-.8-1.5l-.4-.4v-.1l.3.1v-.2c-.4-.2-.5-.9-.5-2 0-.7-.1-1.2-.3-1.6 0-.2.2-.6.5-1.2h.9c1.7 0 4.7.2 9 .5.5-.1.9-.1 1.3-.1h4.1c0-.4.2-1.1.7-2.1v-.4c0-.5-.6-2-1.8-4.5 0-.4-.8-1.2-2.3-2.3-1.8-1.1-3.3-1.6-4.5-1.6-1.5-.1-2.3-.1-2.6 0-1 .1-1.9.3-2.6.5-1.1.4-1.8.9-2.1 1.6-2.4 3-3.6 6.4-3.6 10.4 0 .8.1 1.6.3 2.5.7 2.2 1 3.5 1 3.7.3.7.7 1.4 1.2 1.9 1.2 1.5 2.5 2.3 3.9 2.3l2.5.9c.8 0 2.2-.2 4.1-.6 1.7-.5 2.8-1 3.5-1.5 1.2-1 1.8-1.5 2-1.5.8.1 1.2.5 1.2 1.1h.2c.4 0 1.1-.6 2.1-1.9v-.2c-1.1-1.3-2-2.4-2.7-3.5zm-2.1-8.7l.1-.1h.2V58.5c0 .2-.1.3-.2.3l-.1-.2v-.3zM86 61v.3h-.2V61h.2zm5.9.5c-.8 0-1.2 0-1.2-.1l.9-.1c-2.6-.1-4.1-.3-4.7-.4v-.1c4.5.2 6.8.4 6.8.7 0-.1-.6 0-1.8 0zm-4.5-2.3v-.1c1.5.1 2.8.2 4.1.5v.2h-1c-1.5 0-2.6-.2-3.1-.6zm9.2 2.4h-.4c-.5 0-.8-.1-.8-.2 0 0 .1-.1.4-.1.6 0 .8.1.8.3zm-1.2-1.2v-.1h.1v.1h-.1zm1.9-4.2c.4.1.6.6.8 1.5l-.1.1h-.2c-.1-.1-.4-.6-.7-1.6h.2zm-.7-.9l.2.2v.3l-.1.1h-.1c-.2 0-.3-.1-.4-.4 0-.1.2-.2.4-.2zm-2-1.3l.9.4c.4.1.6.2.8.3v.1l-.3-.1-.4.2c-.1 0-1-.5-2.7-1.5 0-.1.1-.1.3-.1h.1c.6 0 1.1.2 1.3.7zm-2.7-1.5h1.3c.4.1.5.1.5.2v.2c-1.2-.1-1.8-.2-1.8-.4zm.1.9v.2h-.1c-1.2-.2-1.8-.3-1.8-.4 0-.1.2-.2.6-.2h.1c.5-.1.9.1 1.2.4zm-3.9-1.2c1.2-.6 2.1-.8 3-.8l.1.1c0 .1-.1.2-.4.2-1.2.3-2.1.5-2.7.5zm.6 1.6h.4v.2c-.9.3-1.5.5-1.8.8.2-.5.6-.8 1.4-1zm-2.4-.9c0-.3.3-.6.8-.8h.1l.2.2v.3c0 .1-.3.3-.9.4l-.2-.1zm-.7 2.1c.1-.2.3-.3.4-.3h.2c.1.2-.1.3-.6.3zm-.2 1.6c0 .3-.1.4-.3.4 0-.2.1-.4.3-.4zm-.3 1c.4-.5.8-1 1.2-1.6.8-.7 2.4-1.3 4.9-1.8l1.5.3c.9.1 1.6.5 2.3 1.2 1.5 1.3 2.2 2.2 2.2 2.6v.7c0 .2-.1.5-.3.8-.2-.1-.3-.1-.3-.2-.4 0-1.2-.2-2.4-.6h-.6l-.4-.1c-5.4-.4-8.1-.8-8.1-1.1v-.2zm-.5-1.7l.1-.1h.2l-.3.1zm0 2.9c.1-.2.3-.4.5-.4h.2v.1c-.1.2-.3.4-.5.5h-.2v-.2zm0 2.5c.1-.2.3-.3.5-.3h.1l.1.2v.1h-.7zm-2.4-.4h.2l.2.1c0 .3-.1.4-.3.4-.1 0-.1-.1-.1-.3v-.2zm.4 4.1c-.3-.4-.4-.9-.4-1.4v-.9c.3.1.4.9.4 2.3zm.5 1.6l-.2-.1v-.1h.1l.1.2zm-.8-6.3c.1-1 .3-1.5.5-1.8.1 0 .2.1.3.2-.4 1.1-.6 1.6-.8 1.6zm1.5 7.7c-.2 0-.4-.2-.5-.7v-.1c.3.3.5.5.5.8zm2.2 4.9c-.4-.2-.7-.3-.8-.5v-.2h.1c.2 0 .5.3.8.8l-.1-.1zm3.5-.1c-.7-.1-1-.2-1-.4.3 0 .6.1 1 .4zm1.5.1h.1v.1H91v-.1zm1.1 1.4h-.8l-.2-.1v-.1c0-.1.2-.2.4-.2h.2l.9.1c.6-.3 1.2-.4 1.9-.4h.2c.3 0 .5.1.5.3-1.1.2-2.2.4-3.1.4zm3.3-2.7c0-.1.1-.3.4-.5.1.3 0 .4-.4.5zm.4 2c0-.2.2-.5.6-.7h.1c-.2.4-.4.7-.7.7zm1.8-3.9c-.1.4-.3.6-.6.6h-.1c.1-.5.3-.7.7-.6zm.3-1.9l-.1-.1c.1-.1.2-.2.4-.2l.2.2c0 .1-.1.2-.3.2h-.2zm.3 4H98c0-.3.2-.5.6-.6.1.2-.1.3-.4.6zm1.5-1.7c0 .2-.2.4-.7.6l-.1-.1c.1-.4.4-.6.8-.5zm.4.1h-.1c0-.2.1-.3.3-.4h.1c0 .1-.1.2-.3.4zm1.9 0l-.1.1c-.2 0-.3-.2-.4-.5v-.1c.3 0 .4.1.5.5zM142.2 71.7c-.3-.8-1-1.7-2.2-2.7l-1.5-1.1c-1-.5-1.7-.8-2-1-1.8-.5-4.2-.8-7-.8h-1.8l-1 .1c-.6.4-1.1.5-1.6.5h-.1l-.4-.1c.4-2 .7-2.9.9-2.9h.6l2.9.3h1.3c1 0 2.2-.7 3.5-2 1-.4 1.8-1 2.4-1.6.3-.3.8-1.8 1.6-4.5 0-.2.8-1.2 2.5-3.1v-.1c-.4-.4-.7-.7-1-.8-.7-.8-1.1-1.2-1.3-1.2-1.1 1.2-1.8 1.8-2.1 1.8h-.2c-1.3-.7-2.2-1.1-2.8-1.1-1.6-.6-2.8-.9-3.5-.9h-1.5c-1.1 0-2.4.8-4 2.5-.9 1.3-1.5 2.1-1.9 2.4-.4 1.3-.6 2.3-.6 2.8v.8c0 1 .4 2.2 1.2 3.7-.1.6-.4 2.1-.7 4.6 0 .1-.6.8-1.7 1.9-1 1.5-1.6 2.5-1.6 3.1 0 .3.1.5.2.5h.1c0-.2.4-1 1.3-2.4v.1c-.2.6-.6 1.9-1 3.7h-.1c-.1 0-.2-.3-.4-1h-.1l-.2.6.2 1c0 1.5.3 2.8.8 3.7 0 1.3.7 2.4 2.1 3.3 1.9 2.1 5.5 3.2 10.7 3.2l1.2-.2c2 0 3.7-.4 5.1-1.3l2.7-2c1.7-1.6 2.6-3 2.6-4.1 0-1.9-.5-3.6-1.6-5.7zm-4.2-20l.1-.1h.1l.3.2v.1h-.3l-.2-.2zm-.2 2.5c.6-.8 1-1.2 1.3-1.2v.1c-.2.4-.7.8-1.3 1.4h-.1v-.3zm-18.7 21.6v-.3h.2v.5l-.2-.2zm.5.8l-.1.1c-.1 0-.1-.1-.2-.3v-.1h.1l.2.2v.1zm19.2-6.7h.3c.6.2 1.1.7 1.5 1.6v.1h-.1l-1.7-1.7zm1.1 3.2v.2h-.1c-.9-1-1.3-1.6-1.3-1.8h.2c.4-.1.8.5 1.2 1.6zm-2.5-4.1h.2c.4 0 .8.1 1 .4v.1h-.2c-.7-.1-1.1-.3-1-.5zm-1.9.6c1.7.5 2.6 1 2.9 1.4l-.2.2h-.6c-.9-.6-1.9-1.1-3.2-1.5-1.5-.1-2.2-.2-2.2-.3l.2-.2c.5 0 1.5.1 3.1.4zm-3.1-1.2l1.1.1v.1c-.7 0-1.1-.1-1.1-.2zm4.2.2l.1-.2h.2v.2H136.6zm-6.9-1.6l1-.2h.4c1.3 0 2.3.1 2.9.2l1.1.4c.1-.1.3-.1.4-.1h.4c.5 0 .9.1 1 .4v.1h-1.3c-.1.1-.3.1-.4.1h-.1l-.9-.3c-3-.2-4.5-.3-4.5-.6zm-3.9.7h.5c.2.1.4.3.5.5 0 .1-.2.1-.6.2-1-.1-1.4-.1-1.4-.2.1-.2.4-.4 1-.5zm.5 1.5v.2h-.3l-.1-.1.2-.2h.1l.1.1zm-1.3-7c-.3 0-.5-.1-.6-.4l.1-.1c.4.1.7.2.7.3l-.2.2zm1.4.6h-.8l-.2-.2v-.4c.1 0 .4.1.9.4v.2zm3.2.4h-1.3c-1 0-1.5-.1-1.5-.4l.2-.1h.4c1 0 1.8.1 2.5.4 0 0-.1.1-.3.1zm.9-1c-.5-.1-.8-.1-.8-.2l.2-.2h.4c.4.1.6.2.6.3l-.4.1zm1.7-1c-.4.4-.7.7-.9.7h-.2l-.3-.2v-.1c.3-.3.6-.4.9-.4h.5zm.6.2l-.4.3h-.1v-.2l.2-.2.3.1zm0-.4h-.1c.1-.2.3-.4.8-.8l.1.2c-.1.2-.4.4-.8.6zm3-1.2h.1c-.1.2-.1.3-.1.3h-.1l.1-.3zm-1-6h.2c.4.3.7.6.7.8 0 .1 0 .1-.1.1-.3 0-.6-.3-.8-.9zm0 4.1v.3c-.1 1.2-.5 1.8-1 1.8h-.3c0-.2.4-.9 1.1-2.1h.2zm-6.4-6.1h.4v.2l-1.3.5h-.1v-.2c0-.2.3-.4 1-.5zm-2.1-.4c.5-.4 1-.7 1.4-.7h.1c0 .3-.5.5-1.5.7zm-.5 2h.3v.2c-.3.4-.5.6-.7.6h-.2c0-.3.2-.5.6-.8zm-1.1 3.5c0-.4.4-1.1 1.2-2.1 1.3-1.2 2.7-1.8 4.1-1.8.6 0 1.7.4 3.3 1.1.7 1 1.1 1.7 1.1 2.1v.7c0 .2-.1.5-.4.9-.3.7-.9 1.5-1.6 2.1-1 1-2.6 1.5-4.9 1.5-.5 0-1.1-.3-1.8-1-.2 0-.6-1.1-1-3.4v-.1zm-.5 1.1c.2.1.4.6.4 1.3v.2c-.3-.4-.5-.9-.5-1.4l.1-.1zm-.1 5.3v.7l-.2.1c-.2-.1-.4-.2-.4-.4v-.4l.2-.2h.1l.3.2zm-.5 5.3v.3l-.2.2h-.3l-.2-.1c.1-.4.3-.5.6-.5l.1.1zm-.4-13.4l.1.1c-.4.5-.6.8-.7.9h-.1c.3-.7.5-1 .7-1zm-1.3 2.3c.1-.4.2-.5.3-.5.2 0 .3.6.4 1.9 0 .1 0 .1-.1.1h-.2c-.2-.4-.4-.8-.4-1.5zm.6 4v-.1h.2c.5 0 .9.3 1.2 1v.1c-.6-.2-1.1-.6-1.4-1zm0 9.3c0-.1.2-.2.6-.2h.1v.2l-.5.2h-.1v-.2zm-1.4-1c.4-.5.7-.8 1.1-1l.1.1v.3c0 .3-.4.5-1.1.7l-.1-.1zm-.3 2.8l-.1-.2c0-.4.2-.8.6-1.1h.1c-.3.8-.5 1.3-.6 1.3zm.5 7c-.1 0-.2-.1-.3-.3l.2-.2c.2.1.3.2.3.3l-.2.2zm.7-2.4c0 .1 0 .3-.1.3h-.1c-.1 0-.2-.3-.3-.9l.1-.9.1-.1h.1c.1 0 .2.4.2 1.1v.5zm-.1-5.8v-.2c.1-.2.2-.3.4-.3v.1l-.3.3h-.1zm.8 9.1h-.4v-.1l.1-.2h.3v.3zm.7-.3h-.3l-.2-.2v-.1h.1c.2 0 .3.1.4.2v.1zm4.4 3.2l-.2-.1.2.1zm1.1.4c-.3 0-.5-.1-.5-.2h.2c.5 0 .8.1.8.2h-.5zm4.4 0l-.6.1h-.3c-.2 0-.3-.1-.3-.2v-.1l.1-.1h.3l.8.1v.2zm-.2-1.2h-1c-.9 0-1.7-.1-2.5-.2h-.1l-.3-.2h-1.3c-.6-.1-1.1-.3-1.5-.6v-.1l1.2.1c.5.2 2.5.4 6.2.6.8-.3 2.2-.6 4-1 0 .1-.6.3-1.9.8-.5.5-1.4.6-2.8.6zm1.6 1.1h-.2v-.1c.1-.1.4-.3.8-.4h.2c0 .2-.3.4-.8.5zm3.4-1c-1.2.7-1.9 1.1-2.2 1.1h-.1c0-.4.7-.8 2.1-1.2l.2.1zm.3-3c-.8.8-2.3 1.5-4.5 1.9-1.7 0-3.9-.2-6.5-.6-1.8-.5-2.7-.9-2.7-1.1-1-.7-1.6-1.2-1.6-1.3-.4-.7-.7-2.6-.9-5.5V73l.3-.3c0-.5.7-1.4 2.1-2.6h3.3l.9.1.7-.1V70c.1-.1.4-.2.8-.2h.5v.3h2.8c1.3.2 2.7.7 4 1.6.7.4 1.2.8 1.3 1.2 1.2 1.5 1.7 2.5 1.7 3v.1c0 1-.7 2.2-2.2 3.7zm2.5-1.4c0 .6-.4 1-1.1 1.2l-.1-.1v-.1c0-.3.4-.7 1.1-1.3h.1v.3zm.8-3l-.2-.2V75h.2l.2.1-.2.2zm.9-.6h.2V75l-.2-.3zm0 2.1c-.1 0-.2-.2-.2-.4v-.1c0-.4.1-.6.4-.8h.1c.1.4 0 .9-.3 1.3z"/><g fill="#fff"><path d="M148.2 44.4c0 1.1.2 1.9.6 2.5.4.6 1.6.8 3.5.8.8 0 1.4-.2 1.8-.6.6-.9.9-1.7 1-2.2l-.3-1.4c-.6-1.1-1.4-1.6-2.5-1.6l-1.5.2c-1 0-1.9.7-2.8 2.1v.1c0 .1 0 .1.2.1zm5.5 0l.1-.2v.2l-.1.2v-.2zm-.9 1.2c.2-.2.4-.3.6-.3h.1v.1c-.1.2-.3.3-.5.3h-.2v-.1zm-.4.8l.1.1-.1.1h-.8v-.1l.1-.1h.7zm-.8-2.2c-.1.2-.3.4-.6.4h-.4c.1-.3.2-.4.4-.4h.6zm-1.7-1c0-.1.4-.3 1.3-.4l.2.1c0 .1-.5.3-1.5.3zM156.8 71.7c0-1.5-.2-2.7-.5-3.4v-.4c0-.4-.8-.6-2.4-.6h-.1c-.2 0-.4-.1-.4-.2.1-.4.1-.8.2-.9.1-3 .4-6.9.7-11.8v-.7c0-.5-.1-1.1-.4-1.7v-1.1c0-.2-2-.4-6.1-.4l-.6.3c-.4 0-.7-.1-.9-.3h-.1l-.1.1c-.1.7-.3 1.2-.5 1.4.2.2.3.4.3.5l-.2.5c0 .2.1.3.2.4 0 .4.9.6 2.7.6l-.1.1c0 .1.4.2 1.2.2h.1l-.5 11.7c0 1.3-.1 2-.4 2-2.2 0-3.3.1-3.3.4l.1 1.2v.9c0 .2 1.3.4 3.8.6v.1c-1.2.1-2.2.2-3.1.2h-.1c-.1 0-.3-.1-.4-.2h-.1c-.2.1-.4.3-.4.5.2.3.3.7.3 1 0 .5 1.7.8 5 .8h4.5l2-.1.1-.1-.5-1.6zm-3.9-20.5l.1.1v.1h-.1l-.2-.1.2-.1zm-1.6 15.3c.1-.4.1-.5.2-.5h.1v.3c0 .3-.1.5-.2.5h-.1v-.3zm.3-11.8c0-.5.2-.8.6-.8h.3l.1.1v.2l-.1.2c-.3 0-.5.5-.5 1.6v.3l-.1.3c-.1 0-.2-.1-.3-.4l.3-.8-.3-.7zm.6 7.9v.3c-.2 1.2-.4 1.8-.6 1.8 0-.5.1-1.4.4-2.5h.2v.4zm-.9 4.9v-.2l.1-.2.1.1v.1l-.2.1zm.1 2.5c0 .3-.1.4-.4.4l-.2-.2c.1-.1.2-.2.4-.2h.2zm-4.6-18.5c0-.1.4-.2 1.2-.2h.1l.1.2c0 .1-.4.2-1.2.2h-.2v-.2zm1.5 1h-.6c-.4 0-.6-.1-.6-.2v-.1h.8c1.7-.1 2.6-.1 2.6 0s-.2.2-.7.2h-1.5zm1.6 17.5c-.1.1-.2.2-.4.2h-.3c-1.6 0-2.5-.2-2.8-.4l.3-.1c.8 0 1.9 0 3.2.3zm.3-5c-.1 0-.1-.1-.1-.3l.1-5.8c.1-2.9.4-4.4.8-4.4.1 0 .2.1.3.4-.2 3.3-.3 5-.4 5v.1c0 .3.1.7.2 1 0 .1-.1.2-.3.3l.1.6v.3c-.2 1-.3 1.6-.5 1.8v.7c0 .2-.1.3-.2.3zm2.1 6.5l-1.3.1h-.6v-.2h1.9v.1zm.4-16l-.1.2h-.1c-.1-.1-.2-.2-.2-.4V55h.2c.1.1.3.2.3.3v.2zm-.1-2.5c0-.3-.1-.4-.2-.4h-.1c0 .1 0 .1-.1.1h-.1c-.3-.3-.6-.4-.8-.4v-.1h1.9v.3l-.6.5zm2.5 18.2l-.1.2h-.1v-.1l.2-.1zm.7-1c-.2.1-.4.2-.4.3l.1.1v.1h-.1c-.5 0-.7-.2-.8-.5l.5-.1c.1-.3.2-.4.3-.4h.2c.1 0 .2.1.2.4v.1zm0-1.7c-.5 0-.8-.1-1-.3h.4c.4 0 .6.1.6.2v.1zm.4 4.6h-.2V73l.2-.1h.1v.1l-.1.1z"/></g><path fill="#fff" d="M182.1 52.2c0-1-.7-1.5-2.1-1.5-3 0-4.9.1-5.6.4-.7 0-.9 1.3-.8 3.9h.2l.5-.1c1.8-.1 1.7 1.7-.2 5.3l.1.4c0 .3-.3.9-.8 1.8-.7 1.8-1.5 3.7-2.6 5.7-.6 1.5-.9 2.2-1 2.2h-.1c-.6-.1-1.7-2.1-3.4-5.9-.6-.7-1.3-2.6-2.2-5.6-1.2-2.5-1-3.8.6-3.9.2 0 .4.1.7.4h.4l.3-.3c-.1 0-.3-.1-.3-.2 0-.3.2-.6.5-.8l-.5-.5v-.6l-.2-.3c0-.5-1.1-.9-3.3-1.2-.5 0-2.5.3-6 .8v.1c.2.2.3.3.3.4l-.3.4v.1l.6.3c0 .1-.3.3-1 .4v.1c.4.2.6.4.6.4v.1l-.1.2v.1c.7.5 1.3.8 1.8.8.4 0 .6-.1.6-.3.4 0 1 1.4 2 4.2.2.1.5 1 1 2.6l.8 1.8v.2c-.1.1-.2.3-.2.4.5.8 1.1 1.7 1.7 2.7.3 1.3.6 2.1.8 2.2.3 0 .6.7 1 2l2.2 3.1c.7.4 1.2.7 1.6.7l.9-.5c.7-.1 1.1-.4 1.1-.8v-.4c0-.2 0-.3.1-.3s1-1.8 2.8-5.5l1.2-3.7c1.9-3.4 3-5.4 3.2-6.1.9-2 1.4-3 1.5-3.1l1.6-.3c0-.5.2-1 .7-1.3-.2-.1-.3-.5-.7-1zm-23.8 2.9h-.6l-.1-.1.1-.1h.1l.5.2zm.6-1.4l-.2-.1v-.2l.2-.1h.5l.1.1c0 .2-.2.3-.6.3zm1.8 2.7s-.2 0-.4-.2v-.1h.1c.3.2.4.3.3.3zm1.9 3.8c-.1 0-.2-.2-.3-.5.2-.1.3.1.3.5zm.8-8h-1.6c-.5 0-.7 0-.7-.1.1-.2.2-.3.5-.3h.5c.3 0 .8.1 1.3.4zm2.9 14.1c-.3 0-.6-.6-1-1.7v-.1h.1c.3 0 .6.6.9 1.8zm1.7 4c.4.3.7.7.8 1.1h-.2c-.3-.4-.5-.8-.6-1.1zm-.2 1c-.7-.2-.9-.5-.9-.8v-.1h.1c.4.2.7.5.8.9zm.3 1.7h-.1l-.1-.3h.1l.2.2v.1zm1.2-.3c-.4 0-.7-.3-1.1-.8l.1-.1c.4 0 .7.3 1 .8v.1zm3.3-6.1h.1v.1c0 .2 0 .3-.1.4-.2.7-.7 1.6-1.5 3l-.1-.1c0-.1.5-1.3 1.6-3.4zm-2.3 5.7c-.3 0-.6-.3-.8-.8v-.1c.7-.1 1.1-.3 1.2-.3v.1c.1.1-.1.5-.4 1.1zm1.3-.2c-.1 1.1-.5 1.7-1.1 1.7v-.1l1.1-2h.2c-.1.3-.1.4-.2.4zm2.6-5.5l-.1.7c-1.3 2.8-2 4.2-2.1 4.2h-.1c0-.4.3-1.2 1-2.4.4-1.5.8-2.4 1.3-2.5zm.4-13.1l-.1.1c-.3 0-.5-.2-.5-.7v-.3c0-.1 0-.3.1-.3.1.1.2.4.5 1.2zm.9-.6c0 .1-.1.1-.3.1l-.1-.1.1-.2h.3v.2zm-.6 10.2c0 .2-.1.3-.2.3l-.1-.1c0-.3.1-.4.2-.5l.1.2v.1zm.3-.4l-.1.2-.1-.2.2-.2v.2zm.7-1.7c-.1.4-.3.8-.5 1h-.1c.1-.7.3-1 .6-1zm.7-1.4c0 .3-.1.6-.4.9h-.2v-.3c0-.4.1-.6.4-.8h.2v.2zm.4-1.2h-.2v-.2c.2-.7.4-1 .6-1V57.5c-.1.6-.2.9-.4.9zm.5.2l-.1-.1h.1v.1zm1.5-2.8v.4c-.3 0-.5 0-.6.1-.2.6-.4 1-.6 1h-.1V57c.4-1.5.7-2.3 1.2-2.3.2.1.4.4.4.6l-.2.1v.1l-.1.3zm.8-4.3h-.1c-3.4.1-5.2.3-5.2.5l-.1-.2v-.2c1.4-.2 3-.4 4.8-.4.5 0 .7 0 .7.1v.2zm.9 2l-.6-.1c0-.1.1-.2.3-.2h.4c.4 0 .6.1.6.2-.1 0-.3.1-.7.1zM351.4 68.1c-.4-.3-1-.5-1.9-.7-.3 0-.9.2-1.7.7-.4.3-.6 1.1-.6 2.4v.2c.6 1.7 1.2 2.5 1.7 2.5l.6-.2c1.4-1.1 2.1-2.3 2.1-3.5v-.6c0-.3 0-.6-.2-.8zm-3.3 1.3c0-.4.3-.7.8-.8v.1l-.1.3c-.2 1-.3 1.5-.4 1.6-.1-.1-.2-.5-.3-1.2zm1.9 1.8c-.2.3-.5.5-.9.5h-.5c-.2 0-.3-.2-.3-.4l1.7-.1zm.1-1.9c-.2.6-.4.9-.5.9-.1 0-.2-.2-.2-.5v-.1c0-.4.2-.7.5-.7h.2v.4zm.8.7v.3h-.2v-.1c.1-.2.2-.4.3-.4v.2zM318.3 55.9c-.3-.4-.5-.6-.6-.6-.8-1.6-1.8-2.5-2.9-2.5-4.2-.4-7.5-.1-9.9.9v-.3c0-.2.1-.5.4-.9v-.1c-1.1-.3-1.8-.4-2.3-.4h-1.1c-1.3 0-2.6.5-3.7 1.4 0 .5.1.8.1.8 0 1.7.1 2.5.4 2.5v.1l-.4.2v.1l.1.1c.8-.3 1.4-.5 1.8-.5h.3c.4 0 .6.4.6 1.1l.3 12.2v.1h-.1c-.8 0-1.2.1-1.2.4-1.2.2-1.7.6-1.7 1.1 0 .6 0 1.1.1 1.6 0 .5.3.8.9.8 0 .1 1.7.3 5.1.4l.9-.3h.2l2.1-.2.3-.4.1-2.5-.2-.6c0-.1-.2-.2-.7-.3h-1.1c-.4 0-.5-.1-.5-.4.1-1.3 0-4.5-.2-9.5.4-.7 1.1-1.6 2.2-2.8 1.6-.6 3-.9 4.1-.9 1.2 0 1.8.1 1.9.2.7.7 1 1.3 1 1.7 0 .6.5.9 1.6 1.1h.4c1.4 0 2.2-.2 2.4-.5l-.7-3.1zm-18.4-2.5l.2.2v.5c-.3 0-.5-.1-.8-.4-.1-.1.1-.2.6-.3zm.2 2.1h-.1v-.1c.1-.1.2-.2.5-.2h.1l.1.1c-.1.2-.3.2-.6.2zM299 72.9h-.2l-.1-.1v-.2l.1-.2.2.2v.3zm2.2-19.9v-.2h.1l.5.4v.1h-.4l-.2-.3zM300 72.3h2.4v.1H300v-.1zm2.4 1.1h-1.3c-.9 0-1.3-.1-1.3-.2v-.1h.6c1.6.1 2.4.2 2.4.3h-.4zm1.7-20.4l.2-.1.1.1-.1.2h-.2V53zm0 15.2v-.4l.2-.1h.1l.1.1v.3l-.2.1h-.2zm.2.5v.2h-.1l.1-.2zm-.2-14.9l.2-.1h.1v.1l-.2.2-.1-.2zm-.5 6.4c-.1 2.8-.3 4.1-.4 4.1l-.1-1.8c.1-1.1.1-1.7.1-1.8 0-.3-.1-.6-.2-.9v-.2c0-.3.1-.5.4-.7h.1c.1 0 .2.1.2.4 0 .6 0 .9-.1.9zm-.1-1.6c-.2-.1-.3-.3-.3-.4l.2-.9h.2l.1.8c-.1.3-.1.5-.2.5zm1 14.1h-.7l-.1-.1c0-.1.3-.2.8-.2.1.1.2.1.2.2l-.2.1zm1-16.8l-.1.1h-.1l-.2-.1v-.1h.5v.1zm3.6-2.4c-.4.9-.8 1.3-1.1 1.3v-.1c-.1-.7.3-1.2 1-1.4v.2zm1.2 1.2h-.3l-.2-.9c0-.1.1-.1.3-.2h.1l.1.1v1zm1.1-1.1h-.4l-.1-.1h.9c-.1 0-.2.1-.4.1zm1.2-.2h-.3v-.1c0-.1.1-.1.4-.2l.1.1-.2.2zm1.1.1l-.3.1.2-.1h.1zm1.2 1.6c-.4.7-.7 1-.8 1.1h-.2c.1-.2.1-.3.1-.3 0-.4.3-.7.8-.9 0 0 .1 0 .1.1zm.4 2.2l-.2.1h-.1v-.1l.2-.2v.2zm.2-3.9l-.1.1h-.2l-.1-.1.1-.1h.2l.1.1zm1.7 2h-.1c-.2 0-.4-.1-.6-.4v-.1h.1c.2 0 .4.1.6.5zM343.5 71.9l.4-.4c0-.4-1-.5-3-.5-1.1 0-1.7-.2-1.7-.5h.1l.3.3h.3c-.1-.5-.4-1.2-.8-2.1-2.9-5.9-4.4-8.9-4.4-9v-.1l4.3-2.9-.2-.3c0-.1.1-.2.2-.2.7-.3 1-.7 1-1H341.2c.3-.4.5-.6.7-.6.4 0 .7-.3.7-.8 0-1.4-.1-2.1-.4-2.1-.9-.1-1.3-.2-1.3-.4l.1-.2c.3 0 .7.1 1.2.3l.1-.1v-.1c-.5-.6-2.1-.8-4.8-.8l-1.8.1c-.6 0-.9.3-.9.9-.2 2.6-.4 4-.7 4-3.4 2.3-5.8 4.1-7.4 5.4h-.2c-.3-1.7-.5-5.5-.5-11.5-.1-3.4-.3-5.2-.7-5.6v-.1l.2-.4c-.2-1.2-.4-1.7-.6-1.7-.5-.4-2-.8-4.6-1.1h-.7v.2l.2.3c0 .1-.1.1-.4.1v.2c.2.3.4.6.4.7v.1l-.5-.1c-.1 0-.1.2-.2.7v.2l.1 2.8c0 .2.2.5.5.8l1.3-.3c1 .1 1.6.2 1.6.3.3 1.4.5 5.8.7 13.2.4 1.2.7 3.3.8 6.4 0 2.6.1 3.8.4 3.8.4 0 .6 0 .6.1l-.1.2c-.7.1-1.2.2-1.5.3-1.3.2-2 .4-2 .6v.1l.9-.1h.2c.3 0 .4 0 .4.1v.1l-.6.1.5.5h-.8v.1l.2.2h-.6l-.2-.2V71h-.2c-.4.3-.7.7-.7 1.2v.3c0 .8.2 1.2.6 1.4l.6-.1c.9.2 2.7.3 5.6.5l2.1.5c.4-.1.5-.1.5-.2v-.1c-.4-.1-.6-.3-.6-.5v-.2h.3c.3-.1.5-.3.7-.6v-.1l-.1-.6v-1.2l-.2-.4c-.7-.2-1.2-.4-1.4-.6-1.3-.1-1.9-.4-1.9-.8l-.1-4.8c0-.4.1-.6.4-.8v-.3c.2-.8.4-1.2.6-1.2h.3l-.1.2c0 .1.1.1.3.2.2 0 .5-.2.8-.5 1.1-.9 1.9-1.3 2.4-1.4.3 0 .7.7 1.2 2.2 1.3 2.6 2.3 4.7 3 6.2.4 1.3.7 2.7.9 4.2.2.9.4 1.4.8 1.4h.3c2.8 0 4.5.1 5.2.2h.4c.4 0 .6-.2.6-.6.3-1 .1-2-.3-2.6zM340.2 53h1.2v.2c0 .1-.2.2-.5.2-1-.1-1.4-.1-1.4-.2 0-.2.2-.2.7-.2zm-4-2.8h.3l.1.1v.1l-.1.1h-.2V50.2zm-.2 1.5l.1.1-.2.8.2.5c0 .1 0 .2-.1.2h-.3c-.1 0-.1-.2-.2-.6-.1-.5.1-.8.5-1zm-.3 1.9h.2v.1c0 .1-.2.2-.4.2l-.2-.2s.2-.1.4-.1zm-.9 2.2c.7-.8 1.2-1.2 1.6-1.2h.3v.2c0 .1-.1.2-.4.3-.9.5-1.3.8-1.5.7zm-.1 2c1.4-1.2 2.8-2.1 4.3-2.6h.1l-.1.2c-1.7 1.4-3.1 2.3-4.2 2.6h-.1v-.2zm-12.1-14.3c-.2.5-.5.8-1 .8h-.4l-.1-.1V44c0-.1.3-.2.8-.3v-.1c-.4-.1-.7-.2-.7-.3v-.1c0-.1.1-.1.3-.2h.2c.7 0 1.1.1 1.1.3l-.2.2zm1.4-.9c.1-.3.3-.4.7-.4h.2c0 .3-.1.6-.3.8-.3.1-.5-.1-.6-.4zm.7 11.3l-.1-.3h.1l.2.1-.2.2zm.3-4.7l-.1.1c-.1 0-.2-.4-.2-1.1v-.9l.1-.2c.2 0 .3.5.3 1.4v.7zm5.1 22.1h.1l.1.1v.1l-.2-.2zm-4-2.3c.1 0 .1.1.1.3 0 .2-.1.3-.2.4l-.2-.2c0-.2.1-.3.3-.5zm-.1-1.5v-.8h.2v.3c0 .3-.1.5-.2.5zm0-5.2c.1.3.2.7.2 1v.1c0 .3-.1.4-.2.5h-.1l-.1-.1v-.4c0-.8 0-1.1.2-1.1zm-.3-1l.1-.2h.1v.1l-.1.1h-.1zm0 3.8c0-.3.1-.5.3-.5h.1l.1.1v.7c0 .3-.1.4-.4.4l-.1-.1v-.6zm-.1 6.8l.2.1h-.2v-.1zm-3.3.5c.2-.1 1.2-.2 2.9-.3.7 0 1 .1 1 .1v.1c0 .1-.5.2-1.4.2h-2.4l-.1-.1zm7 1.6h-.3l-.1-.1v-.1h.2c.2 0 .3 0 .4.1l-.2.1zm-.2-2.4h.2c.2.1.3.4.4.7l-.1.1c-.4 0-.7-.2-.9-.6 0-.1.1-.2.4-.2zm-1.7 1.2l.1-.1c.5 0 .8.1.8.2h-1v-.1zm1 .9v.1l-4.8-.7.1-.1h2c1.8.1 2.7.3 2.7.7zm-1.1-1.7h-.2l.1-.1.1.1zm.9-11.4c-.3.4-.6.5-1 .5h-.2V61c.4-.4.7-.5 1.2-.5v.1zm2.3.6c-.4.4-1 .7-1.6 1h-.1v-.1c.1-.2.6-.6 1.7-.9zm2.7.6c-.3 0-.5-.3-.7-.8 0-.1 0-.2.1-.2.3 0 .5.3.6 1zm2.6 5.3h-.2c-.8-1.4-1.3-2.6-1.6-3.7h.1c1.1 1.8 1.7 3 1.7 3.7zm.6-2.2h.1l.1.1v.2l-.2-.3zm.3 4.1c-.3-.2-.5-.6-.8-1.4v-.1h.1c.5.7.8 1.2.8 1.5h-.1zm1.6 1.8h-.4l-.1-.2v-.1c0-.1.1-.1.3-.2.2 0 .3.1.4.3l-.2.2zm2.9 1.7h.4v.2h-.2l-.2-.2zm-.7-.2h.3l.1.1-.2.2h-.2l-.2-.2.2-.1zm2.1 2.3l-.1.1h-.1l-1.1.1-.9-.1h-.2c0-.1.1-.1.4-.1h2zm.5-2.8h.1l.1.1v.2h-.1l-.1-.1v-.2zm.4 1.2c0 .6-.1.9-.2.9v-.8c0-.3.1-.4.2-.5v.4zM201.6 67c-.8-.6-1.4-1-1.6-1.2-1 .4-1.8 1.3-2.5 2.6l.1.2c.4.1.6.1.6.2v.1c-1.7 1.8-2.9 2.8-3.4 2.9-.7.4-1.1.6-1.3.6-1.2 0-2.4-.2-3.3-.5-1.2-.4-2.2-1.5-3.2-3.2-.5-.6-.8-1.1-.8-1.5l-.4-.4v-.1l.3.1v-.2c-.4-.2-.5-.9-.5-2 0-.7-.1-1.2-.3-1.6 0-.2.2-.6.5-1.2h.9c1.7 0 4.7.2 9 .5.5-.1.9-.1 1.3-.1h4.1c0-.4.2-1.1.7-2.1v-.4c0-.5-.6-2-1.8-4.5 0-.4-.8-1.2-2.3-2.3-1.8-1.1-3.3-1.6-4.5-1.6-1.5-.1-2.3-.1-2.6 0-1 .1-1.9.3-2.6.5-1.1.4-1.8.9-2.1 1.6-2.4 3-3.6 6.4-3.6 10.4 0 .8.1 1.6.3 2.5.7 2.2 1 3.5 1 3.7.3.7.7 1.4 1.2 1.9 1.2 1.5 2.5 2.3 3.9 2.3l2.5.9c.8 0 2.2-.2 4.1-.6 1.7-.5 2.8-1 3.5-1.5 1.2-1 1.8-1.5 2-1.5.8.1 1.2.5 1.2 1.1h.2c.4 0 1.1-.6 2.1-1.9v-.2c-1.2-1.3-2.1-2.4-2.7-3.5zm-2.1-8.7l.1-.1h.1V58.5c0 .2-.1.3-.2.3l-.1-.2v-.3zM186.8 61v.3h-.2V61h.2zm5.8.5c-.8 0-1.2 0-1.2-.1l.9-.1c-2.6-.1-4.1-.3-4.7-.4v-.1c4.5.2 6.8.4 6.8.7.1-.1-.5 0-1.8 0zm-4.5-2.3v-.1c1.5.1 2.8.2 4.1.5v.2h-1c-1.5 0-2.5-.2-3.1-.6zm9.3 2.4h-.4c-.5 0-.8-.1-.8-.2 0 0 .1-.1.4-.1.5 0 .8.1.8.3zm-1.3-1.2v-.1h.1v.1h-.1zm2-4.2c.4.1.6.6.8 1.5l-.1.1h-.2c-.1-.1-.4-.6-.7-1.6h.2zm-.7-.9l.2.2v.3l-.1.1h-.1c-.2 0-.3-.1-.4-.4 0-.1.1-.2.4-.2zm-2-1.3l.9.4c.4.1.6.2.8.3v.1l-.3-.1-.4.2c-.1 0-1-.5-2.7-1.5 0-.1.1-.1.3-.1h.1c.6 0 1 .2 1.3.7zm-2.8-1.5h1.3c.4.1.5.1.5.2v.2c-1.2-.1-1.8-.2-1.8-.4zm.1.9v.2h-.1c-1.2-.2-1.8-.3-1.8-.4 0-.1.2-.2.6-.2h.1c.6-.1 1 .1 1.2.4zm-3.8-1.2c1.2-.6 2.1-.8 3-.8l.1.1c0 .1-.1.2-.4.2-1.3.3-2.2.5-2.7.5zm.6 1.6h.4v.2c-.9.3-1.5.5-1.8.8.1-.5.5-.8 1.4-1zm-2.4-.9c0-.3.3-.6.8-.8h.1l.2.2v.3c0 .1-.3.3-.9.4l-.2-.1zm-.8 2.1c.1-.2.3-.3.4-.3h.2c.1.2-.1.3-.6.3zm-.2 1.6c0 .3-.1.4-.3.4.1-.2.2-.4.3-.4zm-.3 1c.4-.5.8-1 1.2-1.6.8-.7 2.4-1.3 4.9-1.8l1.5.3c.9.1 1.6.5 2.3 1.2 1.5 1.3 2.2 2.2 2.2 2.6v.7c0 .2-.1.5-.3.8-.2-.1-.3-.1-.3-.2-.4 0-1.2-.2-2.4-.6h-.6l-.4-.1c-5.4-.4-8.1-.8-8.1-1.1v-.2zm-.4-1.7l.1-.1h.2l-.3.1zm0 2.9c.1-.2.3-.4.5-.4h.2v.1c-.1.2-.3.4-.5.5h-.1l-.1-.1v-.1zm-.1 2.5c.1-.2.3-.3.5-.3h.1l.1.2v.1h-.7zm-2.4-.4h.2l.2.1c0 .3-.1.4-.3.4-.1 0-.1-.1-.1-.3v-.2zm.4 4.1c-.3-.4-.4-.9-.4-1.4v-.9c.3.1.5.9.4 2.3zm.5 1.6l-.2-.1v-.1h.1l.1.2zm-.8-6.3c.1-1 .3-1.5.5-1.8.1 0 .2.1.3.2-.3 1.1-.6 1.6-.8 1.6zm1.5 7.7c-.2 0-.4-.2-.5-.7v-.1c.4.3.5.5.5.8zm2.3 4.9c-.4-.2-.7-.3-.8-.5v-.2h.1c.2 0 .5.3.8.8l-.1-.1zm3.4-.1c-.7-.1-1-.2-1-.4.3 0 .6.1 1 .4zm1.6.1h.1v.1h-.1v-.1zm1 1.4h-.8l-.2-.1v-.1c0-.1.2-.2.4-.2h.2l.9.1c.6-.3 1.2-.4 1.9-.4h.2c.3 0 .5.1.5.3-1.1.2-2.1.4-3.1.4zm3.4-2.7c0-.1.1-.3.4-.5 0 .3-.1.4-.4.5zm.3 2c0-.2.2-.5.6-.7h.1c-.1.4-.4.7-.7.7zm1.8-3.9c-.1.4-.3.6-.6.6h-.1c.1-.5.4-.7.7-.6zm.4-1.9l-.1-.1c.1-.1.2-.2.4-.2l.2.2c0 .1-.1.2-.3.2h-.2zm.3 4h-.2c0-.3.2-.5.6-.6 0 .2-.1.3-.4.6zm1.5-1.7c0 .2-.2.4-.7.6l-.1-.1c0-.4.3-.6.8-.5zm.4.1h-.1c0-.2.1-.3.3-.4h.1c-.1.1-.2.2-.3.4zm1.8 0l-.1.1c-.2 0-.3-.2-.4-.5v-.1c.3 0 .5.1.5.5zM296.7 62.4l.1-.6-.4-.9c-.1-.8-.2-1.3-.3-1.3-.1.3-.2.4-.2.4h-.1c-.4-.8-.7-1.4-.8-1.7 0-.1 0-.2.1-.2.2 0 .5.2.7.6h.1c0-.7-.8-1.6-2.3-2.9-1.5-1.2-3-2.2-4.7-3h-.4l-1.2-.4c-1.1 0-2.6.3-4.5 1-2.1.9-3.9 2.8-5.3 5.8-.7.5-1 1.5-1 2.9-.8 2.2-1.2 3.4-1.2 3.8.3.7.6 1.4 1 2.2 0 1.3 1.4 3.1 4.1 5.5 2.1.9 3.5 1.3 4 1.3h.8c1.3 0 2.5-.1 3.5-.2 1.1 0 2.3-.6 3.5-1.7 2.6-3.7 4-5.8 4.1-6.3.2-1.2.4-2.2.6-2.9l-.2-1.4zm-20.6 3.8c-.1 0-.2-.1-.2-.4l.1-.1.1.3v.2zm16.9-8.8l-.1.2h-.1c-.7-.4-1.2-.8-1.2-1.1v-.1c.8.5 1.3.8 1.4 1zm-2.1-3c.6.2.8.4.8.8-.3 0-.7-.2-1-.6l.2-.2zm-.5 2.4c.2 0 .4.1.4.4v.2c-.2 0-.4-.1-.6-.4-.1-.1 0-.1.2-.2zm-2-3.5c.6.1.9.3.9.6v.2h-.5c-.5 0-.8-.2-1-.6 0-.1.2-.2.6-.2zm1.5 2.2v.1c-.3 0-.8-.2-1.3-.7h.1c.3 0 .7.2 1.2.6zm-2-.1c-.1-.1.1-.2.4-.4h.1l-.5.4zm.1.6l-3.2.8h-.6l-.1-.1c0-.3 1-.6 3-.8l.9.1zm-.9-1.3l.4.1c0 .1-1.2.3-3.5.5v-.2c.6-.3 1.6-.4 3.1-.4zm-6.6 1.2l.1-.2c1.6-1.5 3.5-2.3 5.5-2.3l.7.1c0 .2-1 .4-3 .6h-.3l-.4.1c-1.6 1.2-2.5 1.9-2.7 1.9v-.2zm.5.8c0-.3.3-.5.8-.7v.1c-.3.4-.6.6-.8.6zm.1 1.2l-.1.2v-.2h.1zM280 59c.1-.3.3-.5.5-.6h.2c0 .2-.2.5-.6.8h-.1V59zm-2.2 1.4c-.1.3-.3.4-.4.4-.1-.2.1-.4.4-.4zm0 9.5c-.6-.1-.8-.6-.9-1.6V68l.2-.1c.2-.1.5.5.7 2zm.4-10.6c0-.2 0-.3.1-.4h.1c.1.3 0 .4-.2.4zm.1 5.6l.2-.3v.1l-.1.1h-.1zm.6 6.3l-.4-.4v-.1l.2-.1c.2.1.4.3.4.5h-.2zm.5 1.2v-.2h.3c1.4.3 2.1.6 2.3.8h-.5c-1.1 0-1.8-.2-2.1-.6zm2.9 1.1h-.6c0-.1.2-.2.5-.2h.1v.2zm1.7-.3c-.9 0-1.3 0-1.3-.2v-.1c.5-.1.9 0 1.3.3zm4.4.8c0 .1-.3.2-.8.2-.4-.1-.7-.1-.7-.2v-.1c.1-.2.4-.4.7-.4h.4c.3.2.4.3.4.5zm1.1.2c0-.2.3-.4.7-.5l.1.1c0 .1-.3.2-.8.4zm3.5-8.7c.1 1.2-.7 2.7-2.4 4.5l-1.6 1.3c-.7.3-1.6.6-2.9.8l-.8-.1c-1.5-.4-2.5-.8-3-1.5-1.1-.5-1.7-1-1.7-1.2-.5-.9-1-1.8-1.4-2.6v-.3c.1-1.7.4-3.1.6-4.3 0-.3.5-1 1.4-2 .3-.7.8-1.5 1.6-2.3 0-.4 1.7-.7 5.2-.8h.5c.9.3 1.8 1 2.6 2.2 1.2.8 1.7 1.4 1.7 1.6-.1.5-.2 1.1-.2 2 0 1.1.1 1.8.3 2.3v.4zm1-6.9l-.1.1h-.2c-.7-.3-1.1-.6-1.3-1h.2c.4.1.9.3 1.4.9zm1 9.4c-.2.5-.4.7-.6.7.1-.5.3-.8.5-.8l.1.1zm.5 0l-.2-.1h-.2v-.8.3h.1c.3-.1.4.1.3.6zm.7-2.2c-.3.4-.4.7-.4 1.1h-.1c-.1-.1-.2-.5-.2-1.4 0-.3.1-.4.1-.4h.1l.5.7zm.2-3.2l-.2.2-.1-.2v-.2l.1-.1.1.1v.2zM240.3 69.8c-1.1-1.3-1.6-2.4-1.6-3.3l.2-4.4V61c0-1.6-.2-2.7-.7-3.2-.4-2-.9-3.4-1.6-4.1-.3-.9-1.4-2.2-3.1-3.8-1.5-.4-2.5-.6-3-.6l-5.5.1c-.2 0-.7.2-1.5.7-1.8 1.2-2.9 2.4-3.4 3.8-.1 2-.3 3-.3 3.2 0 .2.4.4 1.2.5.2-.5.3-.8.4-.8l.3-.1c1 0 1.5-.1 1.6-.2.1-1.2.5-2.2 1.1-3 0-.3.8-.7 2.4-1l1.8.3c1.8 0 3 .6 3.7 1.6.7 1.3 1.3 2.6 1.6 4 0 .1-.1.2-.2.2h-.3c-.5-.3-1.3-.5-2.4-.5h-2.3c-1.5 0-3 .4-4.6 1.2-.5.1-1 .5-1.4 1.1-1 1.1-1.6 2.3-2 3.5-.4.7-.7 1.5-.7 2.3v1.3c0 1 .3 1.8.8 2.4.7 1.3 1.1 2.1 1.3 2.2 1.1 1 2.5 1.6 4.1 1.9h.2c1.4 0 2.7-.2 3.9-.5 0 0 1.8-.7 5.3-2.1 1.9 1.7 3.1 2.6 3.6 2.6.2 0 .7-.4 1.5-1.2 1-.8 1.6-1.3 1.6-1.7V71c-.3.3-1-.2-2-1.2zm-18.4-13.9c0 .2-.1.3-.2.3v-.7l.1-.1.1.1v.4zm1.5-4.5c-.5.6-.9.8-1.2.8v-.1c.5-.6.9-.9 1.2-.9v.2zm4.3-.6c-.5.2-.8.3-1.1.3s-.4 0-.4-.1v-.1c.3-.1.7-.2 1.4-.2h.2v.1zm1.2 1.5h-.6l-.1-.2.2-.2h.4l.3.3-.2.1zm1.3-1.8h-.2l-.1-.2.1-.1h.2v.3zm3 .1c.2-.1.4 0 .7.3v.1c-.2 0-.4-.1-.7-.4zm-9.8 10.5l.5-.2v.1c-.1.2-.2.4-.4.4h-.1v-.3zm-.7 9.1l.2-.1.1.1v.1h-.2l-.1-.1zm4.1 3.7c-.7 0-1.3-.1-1.8-.3-1.4-.4-2.1-.8-2.2-1l.1-.2h.1c.7.5 1.4.8 2.1 1 1.2.2 1.7.4 1.7.5zm1.7-2c0 .1-.2.2-.5.2-.2 0-.3-.1-.4-.2l.1-.1h.6l.2.1zm4.7-1.1c-.7.4-1.2.5-1.6.5h-.2v-.1c.1-.2.6-.4 1.6-.5l.2.1zm1.9-3c0 .2-.1.3-.4.5-3.6 1.8-5.6 2.6-6.2 2.6-.4-.1-.7-.1-.9-.3-1.8-.7-2.9-1.4-3.5-2.1v-.1h.4l-.4-.6c-.3 0-.6-.9-.8-2.7 0-.4.3-.8.8-1.3.8-1 2.4-1.8 4.6-2.3.8 0 2.3.3 4.5.9.7.2 1 .5 1 .8h.1c.2 1.6.4 3.1.7 4.3v.3zm.7-1.7l-.2.2-.1-.2v-.3H235.8v.3zm0-1.6h-.2l-.1-.2.1-.1.1.1v.2zm2.1-5.4c.1 0 .2.1.2.2v.2s-.1-.1-.2-.4zm-1.1 1.6l.1-.1c.2.2.3.5.3.9h-.1c-.1 0-.2-.2-.4-.7v-.1zm-.1 1.4l.1.1h-.1v-.1zm.3 1.2l-.1.1-.1-.1v-.2h.3v.2zm.5 2.7c-.3.1-.4-.5-.4-1.6h.1c.2.3.3.9.3 1.6zm.8 5l-.2.2c-.1-.1-.3-.2-.4-.4l.1-.1h.2l.3.3zm.9.8l-.1.1h-.2l-.2-.2v-.1l.1-.2h.2l.2.4zm.4-1h-.1c-.1 0-.3-.2-.4-.6v-.3h.1c.1 0 .3.2.4.7v.2zM277.4 48.9c0-.4-.2-.9-.7-1.6l-2.1-2.7-.3.1c-.2 0-.4-.1-.6-.3-2-.7-3.4-1.1-4.2-1.2h-.2c-1.5 0-2.8.3-4.1.8l-2.1 2.2c-.4.4-.8 1-1.2 1.7l.3.8v6c0 .1-1.1.2-3.4.3h-.2c-.2 0-.3 0-.4.1-.2 0-.4 1.4-.5 4.1l.7.1c.9 0 2-.2 3.2-.6h.2c.5.1.8.1.8.2-.4 3-.6 4.9-.6 5.6v.5c0 .5.1 1.1.3 1.8 0 1.5.1 2.6.4 3.3v.1c-.1.2-.3.3-.6.3h-.7c-.9-.3-1.4-.4-1.7-.4-.5 0-.8.1-.8.3.1.4.2 1 .2 2v1c0 .3.1.5.2.7l3.7-.1c1.3 0 2.9.1 5 .4l.6-.1 1.8.3c.2-1.7.4-2.6.6-2.6l-.2-.1c-.3-.3-1.2-.4-2.8-.4-1.8-.3-2.6-.5-2.6-.7v-1.2l.1-1.3c-.1-1-.2-2-.2-2.8v-6.1c0-.1.3-.2.9-.3h.3c.6.3 1.1.5 1.5.5h.1c1.8 0 2.7-.6 2.7-1.9 0-.5-.3-1-.8-1.5 0-.2-.2-.4-.5-.4-1.9 0-3.2-.2-3.9-.7-.3 0-.4-2-.4-6.1 0-.2.4-.5 1.2-1.1l3.4-.8h.1c1.3 0 2.2.1 2.6.4.1 0 .6 1.3 1.4 3.7.3 1.2.5 1.7.7 1.7h.1c.1-.3.3-.5.3-.5.7.2 1.2.4 1.5.4 1.1 0 1.6-.4 1.6-1.2-.3-.9-.4-1.8-.7-2.7zm-19 7.3V56c.1-.2.2-.3.4-.3h.2l.1.1c-.1.2-.2.4-.4.4H258.4zm.8 2.9h-.5l-.1-.1v-.2c0-.2.1-.4.3-.7.3.3.4.6.3 1zm1.9-1.2h-.4v-.1l.1-.1c.2.1.4.1.4.1l-.1.1zm-.4-1c-.2-.1-.3-.2-.3-.4v-.1l.2-.2c.5.1.8.3.8.4-.2.2-.5.3-.7.3zm1.7 1.5l-.1.1h-.5l.1-.1h.5zm-2 12.3h.1c.2 0 .6.1 1.1.3l-.5.1c-.5 0-.7-.1-.7-.2v-.2zm1.7 2.4c-1.2-.1-1.8-.2-1.8-.4l.1-.1h.3c.6 0 1.1.1 1.4.5zm7.8.3l-.1.1h-.1l-.3-.4V73l.2-.1h.2l.2.1v.4zm-1.4-1.3c0-.1.1-.2.4-.2h.8v.1c0 .1-.3.2-.9.2l-.3-.1zm1-14.3h.3v.1c0 .2-.4.3-1.3.5h-.2c0-.3.4-.5 1.2-.6zm-1.3-.6h.1v.1l-.1-.1zm-2.3-.5h.2c.4 0 .6.1.7.3v.1h-.3c-.3 0-.6-.1-.7-.3v-.1zm-2.1.6l.1.1v.3l-.1-.1v-.3zm0 5.2h.2v.4h-.2v-.4zm-.3-2.8l.1 1.3-.1.7-.1-.8.1-1.2zm.3 13.4h-.3c-.2 0-.5-.1-.8-.4v-.1c.4 0 .7.1 1.1.5zm.1-2.8l-.2.2h-.2v-1.3h.1c.1 0 .2.2.3.6v.5zm-.4-2.2v-.2h.2v.3h-.1l-.1-.1zm.6-3.9c0 1.1-.1 1.6-.3 1.6-.1 0-.3-.5-.4-1.4l.1-.6-.2-.5c0-.1 0-.2.1-.2h.1c.4 0 .5.3.5.9v.2zm0-2.2l-.2.2v-.4h.2v.2zm.1-.9h-.2V61h.1v.1zm.9 11.9c.7 0 1 .1 1 .3l-.1.1h-.7c-.6 0-.8-.1-.8-.3V73h.6zm3.2-28.6c-.5.4-1.4.7-2.5.7.7-.5 1.5-.8 2.4-.8h.1v.1zm.7 2l-.1.1h-.1l.1-.1h.1zm1.3-1h-.6c-.1 0-.3 0-.3-.1v-.1l.4-.1c.4 0 .7.1.7.2l-.2.1zm2.3-.4c0-.1 0-.1.1-.1.5 0 .9.2 1.2.7v.3c-.3 0-.8-.3-1.3-.9zm1.7 4.7h-.2c-.3-.3-.4-.7-.4-1.1v-.1h.1c.4 0 .5.3.6.8l-.1.4zm.7 1.5v.2H274.7c0-.3.1-.5.3-.7v.5zM207.1 143.4h-.7l23.4-23.4h.7zM203.8 143.4h-.7l23.4-23.4h.7zM210.5 143.4h-.7l23.3-23.4h.7zM213.8 143.4h-.7l23.3-23.4h.8zM217.1 143.4h-.7l23.4-23.4h.7zM220.4 143.4h-.7l23.4-23.4h.7zM223.8 143.4h-.8l23.4-23.4h.7zM227.1 143.4h-.7l23.3-23.4h.7zM230.4 143.4h-.7l23.4-23.4h.7zM233.7 143.4h-.7l23.4-23.4h.7zM237 143.4h-.7l23.4-23.4h.7zM240.4 143.4h-.7L263 120h.7zM243.7 143.4h-.7l23.3-23.4h.7zM247 143.4h-.7l23.4-23.4h.7zM250.3 143.4h-.7L273 120h.7zM253.7 143.4h-.8l23.4-23.4h.7zM257 143.4h-.7l23.3-23.4h.7zM260.3 143.4h-.7l23.3-23.4h.8zM263.6 143.4h-.7l23.4-23.4h.7zM266.9 143.4h-.7l23.4-23.4h.7zM270.3 143.4h-.8l23.4-23.4h.7zM273.6 143.4h-.7l23.3-23.4h.7zM276.9 143.4h-.7l23.4-23.4h.7zM280.2 143.4h-.7l23.4-23.4h.7zM283.5 143.4h-.7l23.4-23.4h.7zM286.9 143.4h-.7l23.3-23.4h.7zM290.2 143.4h-.7l23.3-23.4h.7zM293.5 143.4h-.7l23.4-23.4h.7zM296.8 143.4h-.7l23.4-23.4h.7zM300.2 143.4h-.8l23.4-23.4h.7zM303.5 143.4h-.7l23.3-23.4h.7zM306.8 143.4h-.7l23.3-23.4h.8zM310.1 143.4h-.7l23.4-23.4h.7zM313.4 143.4h-.7l23.4-23.4h.7zM316.8 143.4h-.8l23.4-23.4h.7zM320.1 143.4h-.7l23.3-23.4h.7zM323.4 143.4h-.7l23.4-23.4h.7zM326.7 143.4h-.7l23.4-23.4h.7zM330 143.4h-.7l23.4-23.4h.7zM333.4 143.4h-.7L356 120h.7zM336.7 143.4h-.7l23.3-23.4h.7zM340 143.4h-.7l23.4-23.4h.7zM343.3 143.4h-.7L366 120h.7zM346.7 143.4h-.8l23.4-23.4h.7zM350 143.4h-.7l23.3-23.4h.7zM353.3 143.4h-.7l23.3-23.4h.8zM356.6 143.4h-.7l23.4-23.4h.7zM359.9 143.4h-.7l23.4-23.4h.7zM363.3 143.4h-.8l23.4-23.4h.7zM366.6 143.4h-.7l23.3-23.4h.7zM369.9 143.4h-.7l23.4-23.4h.7zM373.2 143.4h-.7l23.4-23.4h.7zM376.5 143.4h-.7l23.4-23.4h.7zM379.9 143.4h-.7l23.3-23.4h.7zM195.9 143.4h.8L173.3 120h-.7zM199.3 143.4h.7L176.6 120h-.7zM192.6 143.4h.7L170 120h-.7zM189.3 143.4h.7L166.7 120h-.8zM186 143.4h.7L163.3 120h-.7zM182.7 143.4h.7L160 120h-.7zM179.4 143.4h.7L156.7 120h-.7zM176 143.4h.7L153.4 120h-.7zM172.7 143.4h.7L150.1 120h-.7zM169.4 143.4h.7L146.7 120h-.7zM166.1 143.4h.7L143.4 120h-.7zM162.8 143.4h.7L140.1 120h-.7zM159.4 143.4h.8L136.8 120h-.7zM156.1 143.4h.7L133.5 120h-.7zM152.8 143.4h.7L130.1 120h-.7zM149.5 143.4h.7L126.8 120h-.7zM146.2 143.4h.7L123.5 120h-.7zM142.8 143.4h.8L120.2 120h-.7zM139.5 143.4h.7L116.9 120h-.7zM136.2 143.4h.7L113.6 120h-.8zM132.9 143.4h.7L110.2 120h-.7zM129.6 143.4h.7L106.9 120h-.7zM126.3 143.4h.7L103.6 120h-.7zM122.9 143.4h.7L100.3 120h-.7zM119.6 143.4h.7L97 120h-.7zM116.3 143.4h.7L93.6 120h-.7zM113 143.4h.7L90.3 120h-.7zM109.7 143.4h.7L87 120h-.7zM106.3 143.4h.8L83.7 120H83zM103 143.4h.7L80.4 120h-.7zM99.7 143.4h.7L77 120h-.7zM96.4 143.4h.7L73.7 120H73zM93.1 143.4h.7L70.4 120h-.7zM89.7 143.4h.8L67.1 120h-.7zM86.4 143.4h.7L63.8 120h-.7zM83.1 143.4h.7L60.4 120h-.7zM79.8 143.4h.7L57.1 120h-.7zM76.5 143.4h.7L53.8 120h-.7zM73.1 143.4h.8L50.5 120h-.7zM69.8 143.4h.7L47.2 120h-.7zM66.5 143.4h.7L43.9 120h-.8zM63.2 143.4h.7L40.5 120h-.7zM59.9 143.4h.7L37.2 120h-.7zM56.6 143.4h.7L33.9 120h-.7zM53.2 143.4h.7L30.6 120h-.7zM49.9 143.4h.7L27.3 120h-.7zM46.6 143.4h.7L23.9 120h-.7zM43.3 143.4h.7L20.6 120h-.7zM40 143.4h.7L17.3 120h-.7zM36.6 143.4h.8L14 120h-.7zM33.3 143.4h.7L10.7 120H10zM30 143.4h.7L7.3 120h-.7zM26.7 143.4h.7L4 120h-.7zM23.4 143.4h.7L.7 120H0z"/></svg>