<svg xmlns="http://www.w3.org/2000/svg" viewBox="0 0 20 20"><path fill="#fff" d="M16.7 11.51c-0.27-0.26-0.86-0.4-1.76-0.41 -0.61-0.01-1.34 0.05-2.11 0.15 -0.35-0.2-0.7-0.41-0.98-0.68 -0.75-0.7-1.38-1.67-1.77-2.75 0.03-0.1 0.05-0.19 0.07-0.28 0 0 0.42-2.4 0.31-3.22 -0.01-0.11-0.02-0.14-0.05-0.23l-0.04-0.09c-0.11-0.26-0.34-0.55-0.69-0.53L9.46 3.48c-0.39 0-0.72 0.2-0.8 0.5C8.4 4.92 8.66 6.34 9.14 8.17L9.02 8.47c-0.34 0.84-0.77 1.68-1.15 2.42l-0.05 0.1c-0.4 0.78-0.76 1.45-1.09 2.01l-0.34 0.18c-0.02 0.01-0.61 0.32-0.74 0.4 -1.16 0.69-1.92 1.48-2.05 2.1 -0.04 0.2-0.01 0.45 0.2 0.57l0.33 0.17c0.14 0.07 0.29 0.11 0.45 0.11 0.82 0 1.78-1.03 3.1-3.33 1.52-0.49 3.26-0.91 4.77-1.13 1.16 0.65 2.58 1.11 3.48 1.11 0.16 0 0.3-0.02 0.41-0.04 0.17-0.05 0.32-0.14 0.41-0.28 0.17-0.26 0.21-0.62 0.16-0.99C16.88 11.74 16.79 11.61 16.7 11.51zM4.38 15.9c0.15-0.41 0.75-1.23 1.63-1.94 0.06-0.04 0.19-0.17 0.32-0.29C5.41 15.13 4.79 15.72 4.38 15.9zM9.6 3.9c0.27 0 0.42 0.67 0.43 1.29C10.04 5.82 9.89 6.26 9.71 6.59c-0.15-0.48-0.22-1.24-0.22-1.74C9.48 4.85 9.47 3.9 9.6 3.9zM8.04 12.45c0.19-0.33 0.38-0.68 0.57-1.05 0.48-0.9 0.78-1.61 1.01-2.19 0.45 0.81 1 1.51 1.66 2.06 0.08 0.07 0.17 0.14 0.26 0.21C10.21 11.74 9.05 12.06 8.04 12.45zM16.44 12.38c-0.08 0.05-0.31 0.08-0.46 0.08 -0.48 0-1.08-0.22-1.92-0.58 0.32-0.02 0.62-0.04 0.88-0.04 0.48 0 0.63 0 1.1 0.12C16.52 12.08 16.52 12.33 16.44 12.38z"/><path fill="#fff" d="M17.9 3.9l-2.79-2.79C14.5 0.5 13.3 0 12.44 0H3.06C2.2 0 1.5 0.7 1.5 1.56v16.88C1.5 19.3 2.2 20 3.06 20h14.38C18.3 20 19 19.3 19 18.44V6.56C19 5.7 18.5 4.5 17.9 3.9zM14 1.81c0.09 0.06 0.16 0.12 0.22 0.18l2.79 2.79C17.07 4.84 17.13 4.92 17.19 5H14V1.81zM17.75 18.44c0 0.17-0.14 0.31-0.31 0.31H3.06c-0.17 0-0.31-0.14-0.31-0.31V1.56c0-0.17 0.14-0.31 0.31-0.31h9.38c0.1 0 0.2 0.01 0.31 0.03V6.25h4.97c0.02 0.11 0.03 0.22 0.03 0.31V18.44z"/></svg>